<svg width="179" height="53" viewBox="0 0 179 53" fill="none" xmlns="http://www.w3.org/2000/svg">
<path d="M20.0548 52.9999C15.28 52.9999 9.97317 51.2947 4.76867 46.4449L4.70728 46.3835C3.76597 45.3739 -4.29657 36.1518 3.08386 22.5096C4.35258 20.095 11.9513 9.28351 12.2651 8.8265L13.0699 7.68056L14.0931 8.62869C14.5024 9.00385 24.086 17.9395 28.4174 25.7224C30.6547 29.7673 30.8662 34.0919 28.9836 37.5843C28.1761 39.0868 27.0027 40.3614 25.572 41.2902C24.1412 42.2189 22.4994 42.7719 20.7983 42.8979C19.1147 43.0394 17.4219 42.7722 15.8638 42.119C14.3057 41.4658 12.9283 40.446 11.849 39.1463C10.8171 37.9425 10.086 36.5108 9.71603 34.9691C9.34602 33.4274 9.34765 31.8198 9.72079 30.2789C11.085 25.0403 16.3986 18.5875 16.6237 18.3146L18.5064 19.8699C18.4518 19.9312 13.3087 26.1794 12.0877 30.8928C11.8076 32.0596 11.8094 33.2763 12.0929 34.4422C12.3764 35.6082 12.9334 36.6899 13.718 37.5979C14.5495 38.5975 15.61 39.3817 16.8094 39.884C18.0087 40.3863 19.3115 40.5919 20.6073 40.4832C21.9037 40.3909 23.1557 39.9723 24.2469 39.2663C25.3381 38.5603 26.2331 37.5898 26.8486 36.4451C28.3287 33.7167 28.1241 30.2311 26.2892 26.9297C22.9605 20.9203 16.0576 13.9696 13.4792 11.4117C10.6348 15.5044 6.13971 22.0185 5.2939 23.6897C-1.268 35.6471 5.52581 43.655 6.46712 44.6918C17.3809 54.7939 28.6834 49.5826 33.1581 45.4149C38.5331 40.4014 39.2357 32.3934 35.0339 23.9898C30.5183 14.9655 18.1517 1.80759 18.0289 1.67799L19.7819 0C20.3003 0.545688 32.5237 13.5535 37.1962 22.8984C41.8686 32.2433 41.016 41.4109 34.802 47.202C30.7498 50.8555 25.5101 52.9155 20.0548 52.9999Z" fill="#F9B61F"/>
<path d="M20.082 47.9796C17.7989 48.021 15.5354 47.5526 13.4563 46.6086C11.3771 45.6646 9.53471 44.2688 8.06319 42.5227C4.17517 37.7889 3.61584 31.1656 6.60348 25.2381C8.50078 21.4214 10.956 17.9086 13.8884 14.8154L15.6892 16.5002C12.9139 19.4115 10.5874 22.7196 8.78623 26.3158C6.20103 31.4657 6.63758 36.9363 9.95264 40.9266C13.2677 44.9169 18.7109 46.4858 24.3997 44.9101C28.2127 43.4913 30.7502 41.2404 31.9507 38.2186C33.3831 34.583 32.817 29.7059 30.3818 24.8424C27.21 18.5193 15.1299 5.45688 15.0071 5.31364L16.801 3.64929C17.3058 4.19498 29.2359 17.1141 32.5714 23.7784C35.3544 29.3307 35.9342 34.7876 34.2221 39.1395C32.7419 42.8501 29.7202 45.5718 25.2387 47.2429H25.1432C23.4984 47.7215 21.795 47.9694 20.082 47.9796Z" fill="#F9B61F"/>
<path d="M75.2238 27.9188V36.3497C75.2238 38.0004 74.3098 38.9076 72.6522 38.9076C70.9947 38.9076 70.0807 38.0004 70.0807 36.3497V27.9188H66.4928V36.6157C66.4928 40.0263 68.9075 42.2772 72.6318 42.2772C76.3561 42.2772 78.7708 40.0536 78.7708 36.6157V27.9188H75.2238Z" fill="#081B3D"/>
<path d="M60.2856 27.8574C60.1436 27.0339 59.6989 26.2933 59.0389 25.7809C58.3788 25.2685 57.5511 25.0214 56.7182 25.088C54.8696 25.088 53.6555 26.2817 53.6555 27.5777C53.6555 28.6554 54.3376 29.5149 55.7837 29.7877L58.5121 30.313C62.0727 30.9951 63.969 33.3279 63.969 36.0904C63.969 39.0985 61.452 42.1407 56.8955 42.1407C51.6978 42.1407 49.3923 38.7984 49.099 36.0017L52.6391 35.0604C52.8029 36.9908 54.1602 38.737 56.9228 38.737C58.9691 38.737 60.1014 37.7138 60.1014 36.3292C60.1014 35.1969 59.242 34.2828 57.7209 34.01L54.9924 33.4575C51.8684 32.8231 49.8561 30.8041 49.8561 27.8505C49.8561 24.365 52.9734 21.7115 56.6772 21.7115C61.452 21.7115 63.2528 24.5832 63.6961 26.8001L60.2856 27.8574Z" fill="#081B3D"/>
<path d="M81.8948 31.9433C81.8487 30.6085 82.0734 29.2782 82.5553 28.0327C83.0373 26.7871 83.7665 25.652 84.699 24.6959C85.6315 23.7398 86.748 22.9825 87.9812 22.4696C89.2143 21.9567 90.5386 21.6989 91.8741 21.7116C97.29 21.7116 100.059 25.0267 100.851 28.2053L97.2627 29.3308C96.7921 27.455 95.271 25.3814 91.8741 25.3814C88.941 25.3814 85.8511 27.4823 85.8511 31.9296C85.8511 36.1042 88.7773 38.396 91.9287 38.396C93.163 38.4496 94.3789 38.0827 95.3776 37.3553C96.3763 36.628 97.0987 35.5833 97.4265 34.3921L100.994 35.4698C100.244 38.4779 97.4265 42.1272 91.9287 42.1272C86.4308 42.1272 81.8948 38.1982 81.8948 31.9433Z" fill="#081B3D"/>
<path d="M102.815 31.9433C102.769 30.6085 102.994 29.2782 103.476 28.0327C103.958 26.7871 104.687 25.652 105.619 24.6959C106.552 23.7398 107.668 22.9825 108.902 22.4696C110.135 21.9567 111.459 21.6989 112.794 21.7116C118.21 21.7116 120.98 25.0267 121.771 28.2053L118.183 29.3308C117.713 27.455 116.191 25.3814 112.794 25.3814C109.861 25.3814 106.765 27.4823 106.765 31.9296C106.765 36.1042 109.698 38.396 112.849 38.396C114.083 38.4496 115.299 38.0827 116.298 37.3553C117.297 36.628 118.019 35.5833 118.347 34.3921L121.914 35.4698C121.164 38.4779 118.347 42.1272 112.849 42.1272C107.351 42.1272 102.815 38.1982 102.815 31.9433Z" fill="#081B3D"/>
<path d="M125.093 41.7247V22.1345H137.371V25.7292H128.919V30.2039H136.559V33.6144H128.919V38.1505H137.371V41.7384L125.093 41.7247Z" fill="#081B3D"/>
<path d="M150.924 27.8574C150.782 27.0301 150.334 26.2865 149.67 25.7736C149.006 25.2607 148.173 25.016 147.336 25.088C145.481 25.088 144.267 26.2817 144.267 27.5777C144.267 28.6554 144.949 29.5149 146.395 29.7877L149.124 30.313C152.691 30.9951 154.58 33.3279 154.58 36.0904C154.58 39.0985 152.07 42.1408 147.507 42.1408C142.316 42.1408 140.004 38.7984 139.717 36.0018L143.251 35.0605C143.421 36.9908 144.772 38.737 147.534 38.737C149.581 38.737 150.713 37.7139 150.713 36.3292C150.713 35.1969 149.86 34.2828 148.339 34.01L145.611 33.4575C142.562 32.83 140.515 30.8109 140.515 27.8574C140.515 24.3718 143.639 21.7184 147.336 21.7184C152.111 21.7184 153.912 24.5901 154.355 26.8069L150.924 27.8574Z" fill="#081B3D"/>
<path d="M167.616 27.8574C167.474 27.0352 167.03 26.2956 166.371 25.7834C165.713 25.2711 164.887 25.0232 164.055 25.088C162.2 25.088 160.985 26.2817 160.985 27.5777C160.985 28.6554 161.668 29.5149 163.114 29.7877L165.842 30.313C169.41 30.9951 171.299 33.3279 171.299 36.0904C171.299 39.0985 168.789 42.1407 164.225 42.1407C159.035 42.1407 156.722 38.7984 156.436 36.0017L159.969 35.0604C160.14 36.9908 161.49 38.737 164.253 38.737C166.299 38.737 167.431 37.7138 167.431 36.3292C167.431 35.1969 166.572 34.2828 165.058 34.01L162.329 33.4575C159.205 32.8231 157.186 30.8041 157.186 27.8505C157.186 24.365 160.31 21.7115 164.007 21.7115C168.782 21.7115 170.583 24.5832 171.026 26.8001L167.616 27.8574Z" fill="#081B3D"/>
<path d="M172.786 18.6557V22.0049H172.104V18.6557H170.815V18.0214H174.075V18.6557H172.786Z" fill="#081B3D"/>
<path d="M178.345 22.0049V19.0991L177.104 22.0322H176.524L175.303 19.0991V22.0185H174.621V18.0214H175.521L176.81 21.0636L178.086 18.0214H179V22.0049H178.345Z" fill="#081B3D"/>
</svg>
