<svg width="119" height="37" viewBox="0 0 119 37" fill="none" xmlns="http://www.w3.org/2000/svg">
<path d="M14.0198 36.7054C10.7332 36.7054 7.08049 35.5316 3.49816 32.1934L3.45591 32.1512C2.80799 31.4563 -2.74157 25.1086 2.33848 15.7185C3.21176 14.0564 8.44206 6.61473 8.65803 6.30017L9.21205 5.5114L9.91631 6.16401C10.198 6.42224 16.7946 12.5728 19.7759 17.9298C21.3159 20.714 21.4615 23.6907 20.1656 26.0945C19.6098 27.1287 18.8021 28.0061 17.8173 28.6454C16.8326 29.2847 15.7024 29.6653 14.5315 29.752C13.3727 29.8494 12.2075 29.6654 11.1351 29.2159C10.0626 28.7663 9.11458 28.0643 8.37163 27.1697C7.66138 26.3411 7.15819 25.3557 6.9035 24.2945C6.64882 23.2333 6.64994 22.1268 6.90677 21.0661C7.84579 17.4603 11.5032 13.0188 11.6582 12.831L12.954 13.9015C12.9164 13.9437 9.37637 18.2444 8.53596 21.4887C8.34319 22.2918 8.34442 23.1293 8.53955 23.9318C8.73467 24.7344 9.11809 25.479 9.65808 26.1039C10.2305 26.792 10.9604 27.3318 11.7859 27.6775C12.6115 28.0232 13.5082 28.1647 14.4001 28.0899C15.2924 28.0264 16.1542 27.7383 16.9053 27.2523C17.6564 26.7664 18.2724 26.0984 18.6961 25.3105C19.7149 23.4324 19.574 21.0333 18.3111 18.7608C16.0199 14.6245 11.2685 9.84024 9.49375 8.07959C7.53591 10.8966 4.44187 15.3804 3.85968 16.5307C-0.656962 24.7611 4.01931 30.2731 4.66723 30.9868C12.1793 37.9402 19.959 34.3531 23.039 31.4845C26.7387 28.0336 27.2223 22.5216 24.3301 16.7373C21.222 10.5257 12.7099 1.46895 12.6254 1.37975L13.832 0.224762C14.1888 0.600367 22.6023 9.55384 25.8185 15.9861C29.0346 22.4183 28.4477 28.7285 24.1705 32.7146C21.3813 35.2293 17.7748 36.6473 14.0198 36.7054V36.7054Z" fill="#F9B61F"/>
<path d="M14.0387 33.2499C12.4672 33.2784 10.9092 32.956 9.47812 32.3062C8.04702 31.6564 6.77885 30.6957 5.76599 29.4939C3.0898 26.2355 2.70481 21.6766 4.76124 17.5966C6.06718 14.9695 7.75717 12.5516 9.77556 10.4225L11.0151 11.5822C9.10481 13.586 7.50346 15.8631 6.26366 18.3384C4.48424 21.8832 4.78472 25.6486 7.06652 28.3952C9.34831 31.1418 13.095 32.2217 17.0106 31.1371C19.6352 30.1606 21.3817 28.6112 22.2081 26.5313C23.194 24.0288 22.8043 20.6718 21.1282 17.3243C18.945 12.9719 10.6301 3.98092 10.5456 3.88232L11.7804 2.73672C12.1278 3.11233 20.3394 12.0048 22.6353 16.5918C24.5509 20.4136 24.95 24.1697 23.7715 27.1651C22.7527 29.7192 20.6728 31.5925 17.5881 32.7428H17.5224C16.3902 33.0722 15.2178 33.2429 14.0387 33.2499V33.2499Z" fill="#F9B61F"/>
<path d="M51.013 17.7248V23.2481C51.013 24.3295 50.4142 24.9238 49.3283 24.9238C48.2424 24.9238 47.6436 24.3295 47.6436 23.2481V17.7248H45.2931V23.4223C45.2931 25.6567 46.875 27.1314 49.3149 27.1314C51.7548 27.1314 53.3367 25.6746 53.3367 23.4223V17.7248H51.013Z" fill="#081B3D"/>
<path d="M41.2267 17.6843C41.1336 17.1448 40.8423 16.6596 40.4099 16.3239C39.9775 15.9883 39.4352 15.8264 38.8895 15.87C37.6785 15.87 36.8831 16.652 36.8831 17.5011C36.8831 18.2071 37.33 18.7702 38.2773 18.9489L40.0648 19.293C42.3975 19.7399 43.6398 21.2682 43.6398 23.078C43.6398 25.0487 41.9908 27.0417 39.0057 27.0417C35.6006 27.0417 34.0902 24.8521 33.898 23.0199L36.2173 22.4032C36.3245 23.6679 37.2138 24.8118 39.0236 24.8118C40.3642 24.8118 41.106 24.1415 41.106 23.2344C41.106 22.4926 40.543 21.8938 39.5464 21.715L37.759 21.3531C35.7123 20.9375 34.394 19.6148 34.394 17.6798C34.394 15.3963 36.4362 13.658 38.8627 13.658C41.9908 13.658 43.1705 15.5393 43.461 16.9916L41.2267 17.6843Z" fill="#081B3D"/>
<path d="M55.3834 20.3613C55.3532 19.4869 55.5004 18.6154 55.8161 17.7994C56.1318 16.9834 56.6096 16.2398 57.2205 15.6134C57.8314 14.987 58.5629 14.4909 59.3707 14.1549C60.1786 13.8188 61.0462 13.6499 61.9211 13.6583C65.4692 13.6583 67.2835 15.8301 67.8019 17.9125L65.4513 18.6498C65.143 17.4209 64.1465 16.0624 61.9211 16.0624C59.9995 16.0624 57.9752 17.4388 57.9752 20.3524C57.9752 23.0872 59.8923 24.5887 61.9568 24.5887C62.7655 24.6238 63.5621 24.3834 64.2164 23.9069C64.8706 23.4304 65.3438 22.746 65.5586 21.9656L67.8957 22.6716C67.4042 24.6423 65.5586 27.0331 61.9568 27.0331C58.3551 27.0331 55.3834 24.4591 55.3834 20.3613Z" fill="#081B3D"/>
<path d="M69.0888 20.3613C69.0586 19.4869 69.2058 18.6154 69.5215 17.7994C69.8372 16.9834 70.315 16.2398 70.9259 15.6134C71.5368 14.987 72.2682 14.4909 73.0761 14.1549C73.884 13.8188 74.7515 13.6499 75.6265 13.6583C79.1746 13.6583 80.9889 15.8301 81.5073 17.9125L79.1567 18.6498C78.8484 17.4209 77.8519 16.0624 75.6265 16.0624C73.7049 16.0624 71.6761 17.4388 71.6761 20.3524C71.6761 23.0872 73.5977 24.5887 75.6622 24.5887C76.4709 24.6238 77.2675 24.3834 77.9217 23.9069C78.576 23.4304 79.0492 22.746 79.264 21.9656L81.6011 22.6716C81.1095 24.6423 79.264 27.0331 75.6622 27.0331C72.0604 27.0331 69.0888 24.4591 69.0888 20.3613Z" fill="#081B3D"/>
<path d="M83.6837 26.7692V13.9352H91.7273V16.2902H86.1906V19.2216H91.1955V21.456H86.1906V24.4276H91.7273V26.7782L83.6837 26.7692Z" fill="#081B3D"/>
<path d="M100.607 17.6844C100.514 17.1424 100.22 16.6552 99.785 16.3192C99.3497 15.9832 98.8041 15.8229 98.2562 15.8701C97.0408 15.8701 96.2453 16.6521 96.2453 17.5011C96.2453 18.2072 96.6922 18.7702 97.6396 18.949L99.427 19.2931C101.764 19.74 103.002 21.2682 103.002 23.0781C103.002 25.0488 101.358 27.0418 98.368 27.0418C94.9673 27.0418 93.4524 24.8521 93.2647 23.02L95.5795 22.4033C95.6912 23.6679 96.576 24.8119 98.3858 24.8119C99.7264 24.8119 100.468 24.1416 100.468 23.2345C100.468 22.4927 99.9097 21.8939 98.9131 21.7151L97.1257 21.3532C95.1282 20.942 93.7875 19.6193 93.7875 17.6844C93.7875 15.4009 95.8342 13.6625 98.2562 13.6625C101.384 13.6625 102.564 15.5439 102.855 16.9962L100.607 17.6844Z" fill="#081B3D"/>
<path d="M111.542 17.6843C111.449 17.1457 111.158 16.6611 110.726 16.3255C110.295 15.99 109.754 15.8275 109.209 15.87C107.993 15.87 107.198 16.652 107.198 17.5011C107.198 18.2071 107.645 18.7702 108.592 18.9489L110.38 19.293C112.717 19.7399 113.955 21.2682 113.955 23.078C113.955 25.0487 112.31 27.0417 109.321 27.0417C105.92 27.0417 104.405 24.8521 104.217 23.0199L106.532 22.4032C106.644 23.6679 107.529 24.8118 109.338 24.8118C110.679 24.8118 111.421 24.1415 111.421 23.2344C111.421 22.4926 110.858 21.8938 109.866 21.715L108.078 21.3531C106.032 20.9375 104.709 19.6148 104.709 17.6798C104.709 15.3963 106.756 13.658 109.178 13.658C112.306 13.658 113.485 15.5393 113.776 16.9916L111.542 17.6843Z" fill="#081B3D"/>
<path d="M114.929 11.6562V13.8503H114.482V11.6562H113.638V11.2406H115.774V11.6562H114.929Z" fill="#081B3D"/>
<path d="M118.571 13.8503V11.9467L117.757 13.8682H117.378L116.578 11.9467V13.8593H116.131V11.2406H116.721L117.565 13.2337L118.401 11.2406H119V13.8503H118.571Z" fill="#081B3D"/>
</svg>
