<svg width="86" height="85" viewBox="0 0 86 85" fill="none" xmlns="http://www.w3.org/2000/svg">
<path d="M0 17.4C0 7.79026 7.79025 0 17.4 0H68.54C78.1497 0 85.94 7.79025 85.94 17.4V66.3648H17.4C7.79026 66.3648 0 58.5745 0 48.9648V17.4Z" fill="#EBF5F8"/>
<rect x="20.3892" y="24.5323" width="45.7193" height="59.6581" rx="4.76" fill="#BDCFD4"/>
<rect x="23.7344" y="28.4352" width="38.4711" height="52.4099" rx="1.55239" fill="white"/>
<path fill-rule="evenodd" clip-rule="evenodd" d="M41.9872 17.4273C39.4309 17.4273 37.3556 19.4869 37.3302 22.0371V20.3085C37.2591 20.8954 36.7327 22.1439 35.196 22.4427H32.0433C30.5429 22.4427 29.3266 23.659 29.3266 25.1594V26.5554C29.3266 28.0558 30.5429 29.2721 32.0433 29.2721H54.1411C55.6415 29.2721 56.8578 28.0558 56.8578 26.5554V25.1594C56.8578 23.659 55.6415 22.4427 54.1411 22.4427L37.3302 22.4427L48.8547 22.4427V22.0845C48.8547 19.5124 46.7696 17.4273 44.1975 17.4273H41.9872ZM48.8547 20.3085C48.9258 20.8954 49.4523 22.1439 50.9889 22.4427H48.8547V20.3085ZM43.1875 21.755C44.024 21.755 44.7022 21.0768 44.7022 20.2403C44.7022 19.4038 44.024 18.7256 43.1875 18.7256C42.3509 18.7256 41.6728 19.4038 41.6728 20.2403C41.6728 21.0768 42.3509 21.755 43.1875 21.755Z" fill="#A6BEC5"/>
</svg>
