<svg width="19" height="23" viewBox="0 0 19 23" fill="none" xmlns="http://www.w3.org/2000/svg">
<path d="M12.3036 3.39697H14.1042C14.5817 3.39697 15.0397 3.58668 15.3774 3.92435C15.7151 4.26203 15.9048 4.72002 15.9048 5.19757V9.69906M5.10119 3.39697H3.3006C2.82305 3.39697 2.36506 3.58668 2.02738 3.92435C1.68971 4.26203 1.5 4.72002 1.5 5.19757V17.8017C1.5 18.2793 1.68971 18.7373 2.02738 19.075C2.36506 19.4126 2.82305 19.6023 3.3006 19.6023H6.00149" stroke="white" stroke-width="2" stroke-linecap="round" stroke-linejoin="round"/>
<path d="M11.4032 1.59668H6.00143C5.50421 1.59668 5.10114 1.99976 5.10114 2.49698V4.29757C5.10114 4.79479 5.50421 5.19787 6.00143 5.19787H11.4032C11.9004 5.19787 12.3035 4.79479 12.3035 4.29757V2.49698C12.3035 1.99976 11.9004 1.59668 11.4032 1.59668Z" stroke="white" stroke-width="2" stroke-linecap="round" stroke-linejoin="round"/>
<path d="M11.8034 19.5026C14.0133 19.5026 15.8048 17.7111 15.8048 15.5012C15.8048 13.2913 14.0133 11.4999 11.8034 11.4999C9.59353 11.4999 7.80206 13.2913 7.80206 15.5012C7.80206 17.7111 9.59353 19.5026 11.8034 19.5026Z" stroke="white" stroke-width="2" stroke-linecap="round" stroke-linejoin="round"/>
<path d="M17.7053 21.4032L15.0045 18.7023" stroke="white" stroke-width="2" stroke-linecap="round" stroke-linejoin="round"/>
</svg>
