<svg width="19" height="23" viewBox="0 0 19 23" fill="none" xmlns="http://www.w3.org/2000/svg">
<path d="M12.3036 3.39697H14.1042C14.5817 3.39697 15.0397 3.58668 15.3774 3.92435C15.7151 4.26203 15.9048 4.72002 15.9048 5.19757V9.69906M5.10119 3.39697H3.3006C2.82305 3.39697 2.36506 3.58668 2.02738 3.92435C1.68971 4.26203 1.5 4.72002 1.5 5.19757V17.8017C1.5 18.2793 1.68971 18.7373 2.02738 19.075C2.36506 19.4126 2.82305 19.6023 3.3006 19.6023H6.00149" stroke="#597C85" stroke-width="2" stroke-linecap="round" stroke-linejoin="round"/>
<path d="M11.4032 1.59674H6.00143C5.50421 1.59674 5.10114 1.99982 5.10114 2.49704V4.29763C5.10114 4.79486 5.50421 5.19793 6.00143 5.19793H11.4032C11.9004 5.19793 12.3035 4.79486 12.3035 4.29763V2.49704C12.3035 1.99982 11.9004 1.59674 11.4032 1.59674Z" stroke="#597C85" stroke-width="2" stroke-linecap="round" stroke-linejoin="round"/>
<path d="M11.8034 19.5027C14.0133 19.5027 15.8048 17.7112 15.8048 15.5013C15.8048 13.2915 14.0133 11.5 11.8034 11.5C9.59353 11.5 7.80206 13.2915 7.80206 15.5013C7.80206 17.7112 9.59353 19.5027 11.8034 19.5027Z" stroke="#597C85" stroke-width="2" stroke-linecap="round" stroke-linejoin="round"/>
<path d="M17.7053 21.4033L15.0045 18.7024" stroke="#597C85" stroke-width="2" stroke-linecap="round" stroke-linejoin="round"/>
</svg>
