<svg width="19" height="19" viewBox="0 0 19 19" fill="none" xmlns="http://www.w3.org/2000/svg">
<path d="M6.16675 7.83329H2.83341C1.91675 7.83329 1.16675 7.08329 1.16675 6.16663V2.83329C1.16675 1.91663 1.91675 1.16663 2.83341 1.16663H6.16675C7.08341 1.16663 7.83341 1.91663 7.83341 2.83329V6.16663C7.83341 7.08329 7.08341 7.83329 6.16675 7.83329Z" stroke="#1D7083" stroke-width="2" stroke-miterlimit="10" stroke-linecap="round" stroke-linejoin="round"/>
<path d="M16.1667 7.83329H12.8334C11.9167 7.83329 11.1667 7.08329 11.1667 6.16663V2.83329C11.1667 1.91663 11.9167 1.16663 12.8334 1.16663H16.1667C17.0834 1.16663 17.8334 1.91663 17.8334 2.83329V6.16663C17.8334 7.08329 17.0834 7.83329 16.1667 7.83329Z" stroke="#1D7083" stroke-width="2" stroke-miterlimit="10" stroke-linecap="round" stroke-linejoin="round"/>
<path d="M6.16675 17.8334H2.83341C1.91675 17.8334 1.16675 17.0834 1.16675 16.1667V12.8334C1.16675 11.9167 1.91675 11.1667 2.83341 11.1667H6.16675C7.08341 11.1667 7.83341 11.9167 7.83341 12.8334V16.1667C7.83341 17.0834 7.08341 17.8334 6.16675 17.8334Z" stroke="#1D7083" stroke-width="2" stroke-miterlimit="10" stroke-linecap="round" stroke-linejoin="round"/>
<path d="M16.1667 17.8334H12.8334C11.9167 17.8334 11.1667 17.0834 11.1667 16.1667V12.8334C11.1667 11.9167 11.9167 11.1667 12.8334 11.1667H16.1667C17.0834 11.1667 17.8334 11.9167 17.8334 12.8334V16.1667C17.8334 17.0834 17.0834 17.8334 16.1667 17.8334Z" stroke="#1D7083" stroke-width="2" stroke-miterlimit="10" stroke-linecap="round" stroke-linejoin="round"/>
</svg>
