<svg width="19" height="19" viewBox="0 0 19 19" fill="none" xmlns="http://www.w3.org/2000/svg">
<path d="M6.16675 7.83335H2.83341C1.91675 7.83335 1.16675 7.08335 1.16675 6.16669V2.83335C1.16675 1.91669 1.91675 1.16669 2.83341 1.16669H6.16675C7.08341 1.16669 7.83341 1.91669 7.83341 2.83335V6.16669C7.83341 7.08335 7.08341 7.83335 6.16675 7.83335Z" stroke="white" stroke-width="2" stroke-miterlimit="10" stroke-linecap="round" stroke-linejoin="round"/>
<path d="M16.1667 7.83335H12.8334C11.9167 7.83335 11.1667 7.08335 11.1667 6.16669V2.83335C11.1667 1.91669 11.9167 1.16669 12.8334 1.16669H16.1667C17.0834 1.16669 17.8334 1.91669 17.8334 2.83335V6.16669C17.8334 7.08335 17.0834 7.83335 16.1667 7.83335Z" stroke="white" stroke-width="2" stroke-miterlimit="10" stroke-linecap="round" stroke-linejoin="round"/>
<path d="M6.16675 17.8335H2.83341C1.91675 17.8335 1.16675 17.0835 1.16675 16.1669V12.8335C1.16675 11.9169 1.91675 11.1669 2.83341 11.1669H6.16675C7.08341 11.1669 7.83341 11.9169 7.83341 12.8335V16.1669C7.83341 17.0835 7.08341 17.8335 6.16675 17.8335Z" stroke="white" stroke-width="2" stroke-miterlimit="10" stroke-linecap="round" stroke-linejoin="round"/>
<path d="M16.1667 17.8335H12.8334C11.9167 17.8335 11.1667 17.0835 11.1667 16.1669V12.8335C11.1667 11.9169 11.9167 11.1669 12.8334 11.1669H16.1667C17.0834 11.1669 17.8334 11.9169 17.8334 12.8335V16.1669C17.8334 17.0835 17.0834 17.8335 16.1667 17.8335Z" stroke="white" stroke-width="2" stroke-miterlimit="10" stroke-linecap="round" stroke-linejoin="round"/>
</svg>
